<svg width="173" height="130" viewBox="0 0 173 130" fill="none" xmlns="http://www.w3.org/2000/svg">
<path fill-rule="evenodd" clip-rule="evenodd" d="M51.2332 71.2755C52.035 77.3002 52.8366 83.3249 53.6384 89.3496L54.2858 94.2148C54.3676 94.8287 54.2904 96.0397 54.6018 96.5893C54.7117 96.7831 55.0008 96.8752 55.2133 96.9895C55.9449 97.383 56.6766 97.7766 57.4081 98.1701C63.5966 101.499 69.785 104.828 75.9732 108.157C81.9123 111.351 87.8514 114.546 93.7903 117.741C94.4049 118.072 95.399 118.934 96.0625 118.707C96.6931 118.491 97.3377 117.958 97.9102 117.622C99.0094 116.977 100.108 116.331 101.208 115.686C107.858 111.781 114.509 107.876 121.159 103.971C123.903 102.359 126.647 100.748 129.391 99.137C130.142 98.6962 130.893 98.2554 131.644 97.8145C132.036 97.5839 132.087 97.5921 132.242 97.2007C132.82 95.7377 133.087 94.0618 133.496 92.5437C133.947 90.8708 134.397 89.1979 134.848 87.525C135.049 86.7785 134.955 86.6822 134.627 85.9616C133.978 84.5354 133.33 83.1093 132.682 81.6831C131.242 78.5178 129.803 75.3524 128.364 72.1871C127.782 70.907 126.38 70.0063 125.371 69.0649L109.7 54.4468C109.302 54.0754 108.904 53.7042 108.506 53.3328C108.44 55.5645 108 57.9636 108.646 60.1194C109.705 63.6573 110.764 67.1953 111.824 70.7332C112.336 72.4433 112.848 74.1533 113.36 75.8633C113.455 76.181 114.034 77.4409 113.879 77.7204C113.793 77.8752 113.062 78.032 112.903 78.0922C112.223 78.3517 111.542 78.6112 110.861 78.8707C108.964 79.5937 107.068 80.3166 105.171 81.0394C103.465 81.6898 101.76 82.3399 100.054 82.9901C99.4753 83.2107 98.796 83.6189 98.1851 83.5849C97.6385 83.5544 97.0172 83.2834 96.4884 83.147C95.5587 82.9071 94.6288 82.6671 93.6991 82.4271C91.8728 81.9558 90.0463 81.4846 88.22 81.0132C86.1653 80.4829 84.4301 78.9254 82.6729 77.7727C79.6525 75.7912 76.6321 73.8097 73.6118 71.8284C72.9203 71.3747 72.9178 71.1159 72.6422 70.2877C72.0231 68.4264 71.4037 66.5651 70.7845 64.7038C70.4539 63.71 70.0472 62.7119 69.7975 61.6945C69.3857 60.0153 69.1414 58.2771 68.8151 56.5793C68.7168 56.0671 68.6183 55.5547 68.52 55.0425C67.2551 55.5567 65.9902 56.0711 64.7251 56.5855C64.5418 56.66 63.6484 56.8823 63.569 57.0649C63.5187 57.1804 63.7844 57.7042 63.8225 57.8168C64.8713 60.9292 65.9201 64.0414 66.9691 67.1536C67.299 68.1327 67.6288 69.1116 67.9587 70.0906C67.1704 68.8494 66.382 67.6079 65.5935 66.3667C64.9742 68.4543 64.3546 70.5421 63.7351 72.6297C62.271 70.937 60.8068 69.2443 59.3425 67.5516C58.8357 69.2443 58.3289 70.937 57.822 72.6297C56.2453 70.5421 54.6685 68.4543 53.0916 66.3667C52.9042 67.4561 52.7167 68.5455 52.5291 69.635C52.4725 69.9639 52.4839 70.9072 52.2654 71.1675C52.0855 71.3818 51.5675 71.2755 51.2332 71.2755Z" fill="#D84727"/>
<path fill-rule="evenodd" clip-rule="evenodd" d="M151.069 84.2984C150.98 87.1344 151.042 90.8158 149.492 93.3094C149.242 93.7117 148.396 94.9653 148.301 93.8625C148.208 92.7799 148.474 91.7077 148.211 90.6125C148.07 90.0265 147.596 88.7465 146.786 89.2758C146.373 89.5456 146.264 90.2117 146.103 90.6322C145.864 91.2542 145.596 91.8665 145.345 92.4838C144.466 94.6388 143.556 97.2106 141.603 98.6367C141.859 96.7784 142.555 94.7942 142.087 92.9158C141.927 92.2756 141.444 91.1066 140.612 91.4818C139.8 91.8472 139.274 93.478 138.892 94.2041C137.731 96.4058 136.544 98.5661 135.237 100.686C134.579 101.752 133.87 102.726 133.009 103.638C132.472 104.208 131.801 105.172 130.954 105.257C130.954 103.632 131.487 102.061 131.975 100.53C132.499 98.8845 132.977 97.2244 133.492 95.5754C133.938 94.1449 134.304 92.7254 134.602 91.2585C134.725 90.6518 134.822 90.0237 135.338 89.6318C135.802 89.2797 136.535 89.1121 137.052 88.8533C138.411 88.1734 139.808 87.4397 141.07 86.5946C141.588 86.2476 142.034 85.7993 142.576 85.488C143.194 85.1334 143.771 84.835 144.343 84.4028C146.811 82.538 149.035 80.244 150.534 77.5134C150.778 78.6104 151.1 79.6824 151.136 80.8133C151.172 81.9728 151.105 83.1396 151.069 84.2984ZM130.76 97.3338C130.365 96.666 129.764 96.9395 129.234 97.2615C128.412 97.761 127.588 98.257 126.762 98.7502C125.08 99.754 123.43 100.81 121.787 101.876C118.443 104.045 114.982 105.82 111.456 107.656C108.048 109.43 104.775 111.541 101.583 113.676C100.815 114.188 100.053 114.713 99.3166 115.27C98.6626 115.763 98.1395 116.457 97.4511 116.896C96.7341 117.354 96.2412 116.983 95.5555 116.645C94.6979 116.223 93.8042 115.869 92.9275 115.488C89.39 113.952 85.8423 112.357 82.4011 110.613C78.9806 108.879 75.7397 106.882 72.4623 104.898C70.9015 103.953 69.3673 102.949 67.8277 101.969C66.1892 100.927 64.4929 100.147 62.7742 99.2604C62.0138 98.8682 61.3402 98.3359 60.5591 97.9794C59.7381 97.6048 58.8707 97.336 58.1354 96.7955C57.8058 96.5531 57.5277 96.2635 57.151 96.092C56.8417 95.9513 56.4906 95.9277 56.1851 95.7782C55.5638 95.4742 55.3859 94.8572 55.2656 94.2155C54.4916 90.0959 54.0802 85.8623 53.6317 81.6969C53.3796 79.3545 53.0983 77.0213 52.75 74.6913C52.5929 73.6408 52.9088 72.8269 53.0747 71.805C53.2683 70.6115 53.3448 69.3929 53.4746 68.1913C54.0868 69.3278 54.6163 70.5204 55.3953 71.5576C55.9696 72.3218 56.9505 73.4057 58.0079 73.3801C59.6514 73.3403 59.5762 70.516 59.6424 69.395C60.391 70.0644 60.6181 71.155 61.2395 71.9327C61.8068 72.6426 62.5789 73.5235 63.4501 73.8414C65.2845 74.5108 65.108 71.0992 65.0071 70.1316C64.9564 69.6463 64.6829 68.8785 65.3318 69.0997C65.9294 69.3035 66.5109 70.1484 67.0132 70.5358C67.8814 71.2058 68.8337 71.7625 69.7244 72.4021C70.8295 73.1956 72.0219 73.7691 73.1486 74.5081C73.8533 74.9704 74.622 75.0742 75.3902 75.4141C76.5157 75.9122 77.5099 76.6546 78.5812 77.2518C80.7027 78.4338 83.0561 79.4938 85.3765 80.2065C86.1273 80.437 87.1278 81.087 87.6973 80.4191C88.0481 80.0081 88.2785 79.3802 88.5762 78.9195C88.9528 78.3362 89.3527 77.7683 89.7679 77.2119C91.2442 75.2346 92.8824 73.3676 94.7018 71.6999C96.8185 69.7599 99.1331 68.014 101.609 66.56C102.672 65.9352 107.114 63.135 108.09 65.1058C107.288 65.0557 106.593 65.3497 105.907 65.7179C105.739 65.8078 104.876 66.4256 105.078 65.8811C104.827 65.9281 104.607 66.2558 104.417 66.4016C104.089 66.6534 103.591 66.9442 103.211 67.1528C102.835 67.3588 102.371 67.4092 102.028 67.6591C101.903 67.7503 101.827 67.8983 101.708 67.9969L101.366 67.9997C101.315 68.1894 101.264 68.379 101.213 68.5687C101.019 67.948 100.744 68.7553 100.421 69.0175C100.227 69.1751 99.9193 69.3374 99.6908 69.4391C99.52 69.5151 99.4936 69.3384 99.3277 69.4728C99.1804 69.5922 99.0864 69.855 98.928 70.0047C98.7335 70.1878 98.4847 70.3302 98.2679 70.4866C97.8526 70.7862 97.4134 71.0215 96.9927 71.3055C96.4267 71.6877 96.1299 72.345 95.5805 72.7447C95.3201 72.9339 94.9159 72.9561 94.775 73.0773C94.4217 73.3816 94.5381 73.8427 93.8792 73.863C93.9392 73.9592 93.9752 74.0634 93.9875 74.176C93.8306 74.1489 93.691 74.0838 93.5689 73.9803C93.5962 74.6388 92.95 74.8739 92.5626 75.2793C92.3393 75.5129 92.061 75.8415 91.9036 76.1226C91.8774 76.1697 91.8274 76.545 91.8166 76.55C91.7568 76.5788 91.3927 76.2584 91.4271 76.2851C91.3256 76.8935 90.738 77.4687 90.4807 78.0318C90.3452 78.3286 90.2075 78.8056 89.9404 79.0143C89.8678 79.071 89.6443 79.0117 89.4596 79.2089C89.3241 79.3535 89.1678 79.6208 89.1128 79.8126C89.0761 79.9407 89.1202 80.2721 89.0675 80.349C88.9708 80.4895 88.8205 80.3483 88.6691 80.4522C88.3893 80.6442 88.3822 80.9441 87.9729 80.9836C88.255 81.6705 89.9587 81.8822 90.5779 82.0776C92.329 82.6297 94.1661 83.1812 95.803 84.0269C96.2264 84.2456 96.6269 84.4259 96.702 84.9298C96.8065 85.6309 96.4499 86.5632 96.3818 87.2715C96.1975 89.1841 96.1598 91.153 96.1983 93.0737C96.2348 94.8931 96.2936 96.7295 96.3783 98.5466C96.4566 100.231 96.7957 101.883 96.9787 103.556C97.0289 104.015 96.9954 106.085 97.7834 105.981C98.4412 105.894 98.0258 104.48 98.0135 104.074C97.9859 103.177 98.1745 102.261 98.1665 101.356C98.1628 100.921 98.3527 100.546 98.371 100.129C98.389 99.7178 98.185 99.3926 98.2461 98.9661C98.3049 98.5568 99.5125 96.2025 98.3527 96.4783C98.4206 96.1418 98.4801 95.8024 98.5698 95.4708C98.6938 95.5825 98.7938 95.713 98.8692 95.862C98.9724 95.1388 98.9379 94.4171 99.002 93.6936C99.0307 93.3657 99.1633 93.0067 99.118 92.6763C99.1267 92.5394 99.1093 92.405 99.066 92.2733C98.9947 92.1976 98.9063 92.1578 98.8014 92.1539C98.7462 91.973 98.732 91.9232 98.83 91.7456C98.8721 91.6253 98.9555 91.5501 99.0804 91.5203C99.3182 91.4921 99.3454 91.3551 99.1618 91.1095C99.2576 90.6247 99.2699 90.3187 99.2008 89.8349C99.1427 89.4285 99.3564 88.6416 99.1387 88.2797C98.8844 87.8566 98.758 88.267 98.7107 87.6806C98.7006 87.5565 98.6925 87.2979 98.7423 87.1741C98.7969 87.0394 98.9609 87.0946 98.9819 87.0467C99.1243 86.7208 99.1338 86.0793 98.6298 86.135C98.6496 85.9022 98.6693 85.6695 98.6889 85.4368C99.053 85.8567 98.9258 85.5012 99.1322 85.2678C99.4103 84.9533 99.6823 84.8991 100.08 84.7747C101.139 84.4436 102.16 83.9455 103.195 83.5413C105.388 82.6853 107.621 81.921 109.749 80.9094C114.224 78.7815 118.611 76.4722 123.115 74.4005C122.793 73.8023 122.993 73.7731 123.228 73.2115C123.542 73.4299 123.476 73.2775 123.699 73.2641C123.679 73.0768 123.737 73.0202 123.874 73.0945C123.982 73.1279 124.094 73.1397 124.208 73.1299C124.487 73.1778 124.714 73.3315 124.968 73.3899C125.051 73.4514 125.142 73.4974 125.242 73.5284C125.332 73.5079 125.408 73.4635 125.471 73.3952C125.881 73.4713 126.02 73.7809 126.038 74.2292C126.041 74.3072 125.802 74.3871 125.871 74.4919C125.99 74.675 126.31 74.6313 126.494 74.6547C126.454 74.845 126.414 75.0351 126.373 75.2252C127.178 74.8529 126.969 76.018 127.213 76.4007C127.281 76.5075 127.432 76.4222 127.511 76.546C127.614 76.7075 127.583 76.9361 127.671 77.0969C127.869 77.4607 128.067 77.4165 128.265 77.8331C129.297 80.0081 130.67 82.0344 131.66 84.2561C132.132 85.3135 132.558 86.3891 133.05 87.4372C133.503 88.4019 133.762 89.222 133.439 90.2754C132.69 92.7191 131.889 95.2074 130.907 97.5679C130.858 97.4898 130.809 97.4118 130.76 97.3338ZM78.5064 115.575C78.4361 115.695 78.3658 115.814 78.2955 115.934C78.1394 115.035 78.5554 115.452 78.5064 115.575ZM75.2021 113.89C74.9769 113.823 75.0742 113.454 75.0815 113.297C75.2239 113.474 75.3636 113.656 75.4822 113.851C75.3888 113.864 75.2954 113.877 75.2021 113.89ZM66.1462 110.432C66.3827 110.299 66.5528 110.203 66.8209 110.053C66.5484 110.585 66.5484 110.585 66.1462 110.432ZM51.8992 63.5543C51.5378 64.4429 52.6397 69.93 51.6138 70.1091C51.4667 69.6275 51.4482 68.3015 50.8392 68.1432C50.0835 67.9467 50.158 69.3118 50.0548 69.734C48.5034 68.6525 47.8142 66.5641 47.0731 64.9089C46.1283 62.7993 45.385 60.6051 44.6751 58.4069C44.068 56.5275 43.5661 54.6149 42.9527 52.7385C42.5673 51.5601 42.1519 50.3787 41.8927 49.164C41.8364 48.9001 41.615 48.231 41.8032 47.9802C42.0767 47.6154 43.0613 48.0331 43.3786 48.1289C45.4368 48.7495 47.572 49.0166 49.6867 49.3771C52.0362 49.7775 54.3805 50.1913 56.7442 50.5018C57.3348 50.5793 57.9258 50.6528 58.5171 50.7242C58.9006 50.7706 59.4811 50.7242 59.8453 50.8965C60.5826 51.2451 60.7396 52.5789 61.0134 53.2709C62.035 55.8526 63.2374 58.3527 64.3131 60.9111C65.2822 63.2157 66.0167 65.6676 67.4097 67.7661C66.3709 67.3046 65.0543 64.8651 63.8934 66.2712C63.3944 66.8759 63.5202 67.6725 63.5601 68.3961C63.6179 69.4422 63.636 70.4961 63.636 71.5438C62.5 71.2481 61.7367 69.9561 61.1403 69.0408C60.3257 67.7908 59.8126 66.6128 59.4519 65.1798C59.2956 64.5592 58.8813 64.5438 58.5132 64.1724C58.2767 63.9338 58.1577 63.6121 57.8185 63.9593C57.3921 64.3957 57.6757 65.6041 57.7494 66.1194C57.9243 67.3454 58.4978 69.2323 57.9403 70.3843C57.1878 71.9391 55.1715 68.0271 54.9353 67.4621C54.8152 67.1745 52.6699 61.6588 51.8992 63.5543ZM50.4905 36.9093C50.6175 36.9288 50.7444 36.9483 50.8715 36.9677C50.7691 37.0583 50.556 37.3758 50.382 37.2919C50.4182 37.1644 50.4543 37.037 50.4905 36.9093ZM57.2196 35.4626C57.1799 35.5064 57.1399 35.5501 57.1 35.5939C56.9179 35.3658 56.9824 35.0331 56.9824 34.7692C57.2231 34.915 57.2819 35.2065 57.2196 35.4626ZM57.7634 37.9942V38.74C57.259 38.521 57.249 38.4079 57.7634 37.9942ZM58.376 38.9424C58.0226 38.8453 57.9804 38.7669 58.03 38.2227C58.1765 38.5276 58.273 38.7285 58.376 38.9424ZM60.4105 44.4658C60.2623 44.8476 59.3965 43.9376 59.4282 43.6653C59.4585 43.4054 59.5914 43.3279 59.7749 43.495C59.8355 43.5503 59.7455 43.7502 59.7842 43.8196C59.9239 44.0708 60.2055 44.2763 60.4105 44.4658ZM60.4201 46.7665C60.2032 47.3092 59.8165 46.4545 60.3833 46.4312C60.4204 46.5403 60.4328 46.6521 60.4201 46.7665ZM59.9993 45.9108C59.9153 45.7986 59.8337 45.6848 59.7545 45.5691C60.0464 45.6281 60.2782 46.0544 60.5862 45.77C60.5497 46.2037 60.2422 46.2157 59.9993 45.9108ZM41.1205 38.8617C40.651 38.3483 43.7124 37.9879 44.0817 37.8997C46.7619 37.2594 49.2923 36.3328 51.7983 35.1958C52.9938 34.6535 54.1831 34.1045 55.3505 33.5033C55.8547 33.2438 56.5457 33.0237 56.9667 32.6341C57.2672 32.3559 57.2552 32.1455 57.6458 31.9798C57.9775 31.8395 57.994 31.972 58.1459 31.7181C58.2372 31.5658 58.3404 31.0075 58.287 30.8423C58.1415 30.3916 57.9265 30.757 57.6246 30.4464C57.4071 30.2225 57.4598 29.5857 57.5191 29.3219C57.5962 29.4475 57.6404 29.584 57.6523 29.7309C57.9798 29.5691 57.8477 29.0134 58.2061 28.9223C58.5837 28.8265 58.5446 29.1212 58.6431 29.4225C58.9285 29.0027 58.6997 28.6447 58.5453 28.2347C59.3304 28.0874 60.1739 27.9447 60.9521 28.2064C61.5149 28.3955 61.9965 28.8605 62.5907 28.9504C63.1726 29.0382 63.2844 28.7618 63.7133 28.4813C64.0615 28.2537 64.3606 28.5218 64.5398 28.3498C64.4293 28.9304 63.4794 28.851 63.5963 29.5765C63.649 29.903 64.0484 30.1964 64.2302 30.4505C64.4584 30.7694 64.6404 31.122 64.7958 31.4813C65.4004 32.8792 65.6589 34.5013 65.9127 35.9961C66.5388 39.6859 66.618 43.4484 67.207 47.1501C67.4876 48.9132 67.7689 50.6773 67.9147 52.4577C67.9512 52.9029 68.2225 53.9126 68.0005 54.3408C67.8128 54.7024 67.3952 54.7034 67.0286 54.7909C66.3112 54.9617 65.6376 55.1938 64.9495 55.4509C64.3327 55.6813 64.1535 55.8226 63.7574 55.2412C63.3744 54.6785 63.1851 54.0079 62.911 53.3911C62.562 52.6051 62.1403 51.8468 61.7355 51.0886C62.5307 51.0886 62.9884 50.6585 62.9673 49.8489C62.9443 48.9521 62.2082 48.7393 61.9048 48.0023C61.6096 48.3864 61.5848 48.3972 61.3745 48.0326C61.1339 47.6157 60.9715 46.8528 60.8244 46.3799C60.9296 46.4924 61.0349 46.605 61.1401 46.7174C61.4056 46.3514 60.9898 45.7746 60.8507 45.4299C60.6362 44.8977 60.5983 44.3224 60.3947 43.7917C60.2838 43.5021 60.0266 43.2741 59.9636 42.9719C59.9215 42.7697 60.0901 42.5772 60.0501 42.3719C59.9805 42.0144 59.5769 41.6308 59.4514 41.2672C59.2583 40.7079 59.0486 40.2155 58.809 39.6707C58.4848 38.9331 58.5602 38.1592 58.5009 37.3743C58.4394 36.5605 58.1792 35.7818 58.0873 34.9715C58.0238 34.4117 58.2226 33.7069 57.7999 33.2585C57.7504 34.0038 57.9636 33.9923 57.2647 34.1264C56.469 34.2789 55.8918 34.8728 55.1395 35.0501C54.9844 35.0866 54.8714 34.4079 54.9319 35.3338C54.571 35.0668 53.8008 35.3983 54.0882 35.5567C53.8704 35.7901 53.4415 35.6286 53.3698 35.9783C52.6297 35.2574 51.4428 37.7113 50.5615 36.4313C50.416 37.2988 49.789 37.8117 48.9473 37.9265C48.5241 37.984 48.2633 38.1254 47.8877 38.2525C47.8115 38.2781 47.7835 38.3879 47.6933 38.4175C47.5554 38.4626 47.353 38.3266 47.2537 38.353C47.0514 38.4069 46.8266 38.6735 46.5443 38.7265C46.2206 38.7872 45.8675 38.7593 45.5434 38.7217C45.1383 38.6747 44.9601 38.6266 44.5634 38.7603C44.2066 38.8807 43.8244 39.2177 43.4933 38.8507C42.9731 39.7524 41.7329 39.532 41.1205 38.8617ZM65.1688 27.9805C64.7752 27.9332 65.0485 27.594 65.2308 27.4921C65.7262 27.2155 65.5939 28.0316 65.1688 27.9805ZM43.3715 31.2162C45.682 27.8765 49.6339 25.5819 53.1112 23.6512C55.0105 22.5966 56.9491 21.5744 58.9433 20.7113C59.9349 20.2824 60.9379 19.87 61.9504 19.4932C62.491 19.292 63.0382 19.109 63.5858 18.9268C63.7372 18.8766 64.0126 18.7222 64.171 18.7373C64.1437 18.7346 64.5648 18.8493 64.482 18.8854C64.7534 18.7671 64.8825 18.4585 65.2014 18.3351C65.5599 18.1963 66.0166 18.1389 66.4006 18.1264C66.7403 18.1152 67.0345 18.2559 67.3582 18.2669C67.5709 18.274 67.7516 18.1727 67.96 18.1578C68.0666 18.1504 68.0571 18.3102 68.1213 18.3195C68.1492 18.3236 68.433 18.2168 68.4357 18.2186C68.5391 18.2851 68.6307 18.5448 68.7241 18.6462C68.992 18.937 69.3853 19.1396 69.7427 19.2926C70.1775 19.4788 71.2383 19.6661 70.7467 20.355C71.0959 20.3047 71.2584 20.6209 70.8212 20.701C70.5844 20.7445 70.4832 20.5271 70.3073 20.3789C69.901 20.0369 68.9147 19.5501 68.3294 19.5721C68.0002 19.5845 67.7457 19.8348 67.4421 19.9257C67.1433 20.0151 66.9953 19.8765 66.7331 19.8985C66.4266 19.924 66.2293 20.1839 65.9372 20.2301C65.6636 20.2734 65.5113 20.0865 65.2668 20.0996C64.9762 20.115 64.6947 20.3678 64.4173 20.4528C63.9761 20.5879 63.652 20.68 63.2212 20.9039C62.3863 21.3381 61.4539 21.503 60.5934 21.8767C59.9055 22.1755 59.1255 22.3327 58.4889 22.6632C57.781 23.0303 57.0699 23.3961 56.3767 23.7951C55.876 24.0833 54.8579 24.1825 54.3058 24.1092C54.2979 25.1279 53.7974 24.4138 53.2931 24.86C53.4124 24.9654 53.5479 25.0429 53.6991 25.0925C53.1526 25.3112 52.6474 25.5834 52.1179 25.8348C51.5707 26.0948 50.9869 26.152 50.6273 26.6437C50.2962 27.0969 50.4084 26.8631 49.9142 27.0415C49.6875 27.1234 49.4903 27.3733 49.327 27.541C49.0462 27.8295 48.984 28.2662 48.8237 27.6734C48.7769 27.7457 48.5927 28.2059 48.5569 28.2176C48.356 28.004 48.3272 28.2572 48.2148 28.3478C48.2739 28.5446 48.1895 28.6736 47.9614 28.7347C47.846 28.8207 47.7291 28.905 47.611 28.9875C47.1825 29.2852 46.6372 29.5406 46.3355 29.9843C46.113 29.8528 46.0305 29.6258 46.166 29.394C45.7408 29.7868 45.2334 30.1901 45.1184 30.7946C45.0655 30.7435 45.0038 30.7066 44.9339 30.6839C44.7612 30.8007 44.9861 31.1487 45.0956 31.2271C45.573 31.0412 44.9763 31.1086 45.2971 31.1386C45.3885 31.147 45.4825 31.2156 45.5833 31.2168C45.8791 31.2206 46.157 31.2064 46.4503 31.1612C47.0971 31.0614 47.7326 30.8753 48.3587 30.6888C49.0406 30.4857 49.7226 30.2829 50.3895 30.0337C50.9385 29.8286 51.4785 29.5999 52.0183 29.372C52.2338 29.281 52.4492 29.1887 52.6652 29.0983C53.0752 28.9267 53.2914 28.6447 53.2342 29.1278C53.5607 29.0734 53.8437 28.611 54.0944 28.4223C54.4472 28.157 54.8439 27.9591 55.2619 27.8237C55.4311 27.7689 55.5555 27.6991 55.7305 27.6986C55.8163 27.6985 55.8677 27.9409 55.9218 27.9277C56.2968 27.8366 56.1258 27.6284 56.2944 27.3284C56.6633 26.6728 57.6567 26.3103 58.2667 25.9379C58.6539 25.7014 58.9288 25.3833 59.2863 25.1215C59.4536 24.9991 59.575 24.9449 59.7502 24.8931C59.8844 24.8534 60.0489 25.1621 60.1359 24.8518C59.8239 24.724 59.5666 24.5664 59.2664 24.4732C59.054 24.407 59.3088 24.1807 58.9722 24.3154C58.8371 24.3696 58.7906 24.6316 58.7409 24.7413C58.365 24.405 57.3081 24.7535 56.8621 24.8943C56.8314 24.904 56.6937 24.8312 56.6288 24.8356C56.3713 24.8528 56.1921 25.2 56.0226 25.3497C55.572 25.7473 55.0833 25.9135 54.5285 26.1405C54.6761 25.3322 55.7613 25.0011 56.3946 24.6915C57.3204 24.2389 58.1824 23.6612 59.1961 23.4178C59.8712 23.2554 60.7658 23.1249 61.0574 23.9114C61.2319 24.3828 61.2538 25.554 60.6634 25.7715C60.601 25.5514 60.8007 25.3634 60.8609 25.1724C60.2731 25.3972 60.1763 26.1046 59.7299 26.4738C59.4791 26.6811 59.3894 26.7477 59.2681 26.9481C59.1476 27.1471 59.0898 27.3328 58.8075 27.5446C58.3461 26.5627 58.4242 27.9077 58.1902 28.0764C58.2843 28.0086 57.8089 28.2068 57.8656 28.1858C57.8437 28.1939 57.6365 27.8577 57.5022 27.8649C57.2578 27.8777 57.3047 28.1474 57.187 28.2831C56.7878 28.7425 56.272 29.0438 55.6295 28.9715C55.6144 29.2984 55.7151 29.6889 55.2696 29.7187L55.2112 28.9941C54.9687 29.2398 54.6496 29.4733 54.4523 29.7578C54.2277 30.0816 54.2517 30.281 53.8792 30.4968C53.49 30.7225 52.6618 31.167 52.1985 31.2054C52.3131 31.0426 52.2928 30.8955 52.1381 30.7645C51.9051 31.0052 51.5611 31.0289 51.3131 31.2462C52.174 31.6066 50.6517 31.588 50.4586 31.6288C50.3293 31.6562 50.2165 31.7742 50.0855 31.8007C49.9117 31.8361 49.8892 31.653 49.7395 31.711C49.5206 31.796 49.6095 32.0359 49.3804 32.1564C49.2158 32.243 48.9367 32.2419 48.751 32.3241C48.3086 32.5205 47.366 32.9553 47.067 32.4279C46.9154 33.3328 45.3677 32.782 44.7948 32.7211C44.0103 32.6376 42.6437 32.2686 43.3715 31.2162ZM46.6669 21.9575C46.7779 21.8625 46.8891 21.8694 47.0003 21.9785C46.8455 21.1595 48.0425 20.7619 48.5647 20.4137C49.2574 19.952 50.0727 19.056 50.9791 19.1269C50.8245 19.2417 50.6703 19.3565 50.5158 19.4712C50.7363 19.4998 50.9566 19.5284 51.1768 19.557C51.0526 19.7399 50.9282 19.9225 50.8037 20.1051C50.6003 18.9819 49.539 20.4 49.2319 20.6067C48.9225 20.8147 48.614 20.9698 48.3391 21.2235C48.0668 21.4749 47.821 21.9275 47.3708 21.7014C47.3297 22.3429 46.8149 22.1689 46.459 22.5242C46.4441 22.3013 46.5715 22.1437 46.6669 21.9575ZM51.3694 18.755C52.465 18.3439 53.4188 17.5837 54.4513 17.0407C55.4374 16.5219 56.4435 16.0561 57.446 15.5721C57.9545 15.3265 58.8861 14.6914 59.4674 15.0151C60.2518 15.4521 59.1719 15.5931 58.8915 15.7445C58.7877 15.0714 58.4243 15.6811 58.6414 16.0556C58.0429 15.7966 56.7374 16.8098 56.1664 17.0892C56.0371 17.1525 56.0951 17.1891 55.9481 17.2636C55.912 17.2819 55.5372 17.3674 55.43 17.4034C54.8924 17.5837 54.5381 17.4405 54.3065 18.0906C54.258 17.9376 54.2095 17.7844 54.161 17.6312C53.8245 18.3884 52.8015 18.7198 52.1473 19.1675C51.9787 19.283 51.4972 19.7307 51.2834 19.6381C50.9857 19.5091 51.1051 18.8541 51.3694 18.755ZM71.1338 21.0378C71.5963 21.0685 71.1503 21.2846 71.2774 21.4275C71.263 21.4114 71.556 21.6618 71.5176 21.593C71.5693 21.6855 71.6935 21.6821 71.757 21.87C71.9758 22.5161 71.0204 23.1837 70.6982 23.5503C70.0718 24.2634 69.7097 25.1665 69.0569 25.8568C68.7621 26.1686 68.4688 26.3839 68.0601 26.5002C67.7741 26.5816 67.4715 26.4944 67.2087 26.77C66.997 26.9919 67.0449 27.118 66.811 27.236C66.3987 27.444 66.2171 27.2616 65.816 27.7112C65.4709 26.771 66.4626 26.7725 66.9801 26.2471C67.6944 25.5218 68.4771 24.79 69.147 24.0141C69.742 23.3247 69.9804 22.7202 70.2628 21.8827C70.3519 21.6186 70.4489 21.0524 70.6943 20.8867C71.0767 20.6287 70.8472 21.0187 71.1338 21.0378ZM73.4084 45.4602C74.6216 44.1006 76.1266 42.8799 77.7579 42.0609C78.341 41.7681 79.171 41.3838 79.7753 41.8346C80.368 42.2764 80.2404 43.1578 80.0015 43.7574C79.7726 43.6673 79.9887 42.8247 79.8699 42.6165C79.6108 42.1621 79.0516 42.4034 78.6711 42.5557C78.2254 42.7341 77.8277 42.9311 77.4748 43.255C77.3315 43.3861 77.0573 43.5038 76.9656 43.594C76.8277 43.5366 76.7465 43.5784 76.7221 43.7193C76.7505 43.8056 76.7471 43.8906 76.7118 43.9742C76.6917 44.0008 76.5125 43.8918 76.487 43.9136C76.3707 44.0133 76.2619 44.1306 76.1476 44.2232C75.918 44.4092 75.7227 44.4972 75.5113 44.7566C75.1031 45.2578 74.5632 45.5515 74.1532 46.029C74.0606 46.137 73.9496 46.4137 73.9288 46.4379C73.7215 46.6803 73.4142 46.8721 73.1804 47.1287C72.7761 47.572 72.3444 47.8696 71.878 48.2498C71.6771 48.4133 71.4428 48.5895 71.3091 48.817C71.2483 48.9208 71.214 49.4895 71.2118 49.4919C70.7543 49.9943 70.8433 48.9844 70.8778 48.8578C71.2493 47.4954 72.5054 46.4725 73.4084 45.4602ZM70.9113 54.6731C70.9682 54.8871 71.015 55.064 71.0728 55.2812C70.71 54.9831 70.71 54.9831 70.9113 54.6731ZM70.5195 55.3739C70.3862 55.5085 70.2522 55.6422 70.1172 55.7751C69.8204 55.4607 70.5739 55.3201 70.5195 55.3739ZM70.3311 49.9637C70.1892 50.5389 69.6697 51.2361 69.3125 51.6901C69.3519 51.64 69.0078 51.7407 68.9686 51.7635C68.8413 51.8373 69.146 52.3157 68.7052 52.1019C68.5487 52.1906 68.8567 52.5518 68.6442 52.7135C68.0299 51.3111 69.7072 50.096 70.3566 49.055C70.6742 49.3472 70.4108 49.6412 70.3311 49.9637ZM66.3411 57.546C66.789 57.6614 67.022 57.5888 67.3244 57.148C67.5062 56.8833 67.5726 56.4144 67.9883 56.8105L68.0617 56.3012C68.6552 56.5451 68.6053 57.4267 68.8647 57.9152C68.9909 57.3625 69.2897 55.8186 70.2049 56.0662C71.2323 56.3443 69.5224 58.1146 69.3636 58.5482C69.0143 58.0052 69.1517 58.5103 68.8853 58.5868C68.6567 58.6527 68.2995 58.4841 68.0218 58.4993C67.1767 58.5454 66.4344 58.9262 65.6625 59.2487C65.467 58.7207 65.2717 58.1928 65.0762 57.6648C65.5307 57.6999 66.4704 56.4879 66.6038 57.3688C66.2668 57.31 66.1718 57.3249 66.0076 57.6323C66.1125 57.579 66.2237 57.5502 66.3411 57.546ZM68.238 64.4372C68.2367 64.4329 69.1122 64.4871 69.1902 64.4585C69.7893 64.2393 69.5678 63.5585 69.6903 63.0773C69.9373 63.3048 69.8064 63.72 69.8826 64.0143C69.9719 64.3603 70.2307 64.6552 70.2547 65.0252C70.3093 65.8613 69.6246 65.6757 69.1056 65.9462C68.6621 66.1775 68.6129 66.4683 68.2384 65.8452C68.137 65.6766 67.9191 65.2373 67.9414 65.0217C67.9633 64.808 68.3011 64.6305 68.238 64.4372ZM68.9436 68.0548L68.7015 67.7832C69.4229 68.0044 68.9974 67.6718 69.1634 67.2169C69.717 67.5863 70.1686 67.966 70.6067 67.2264L71.3635 70.2851C70.8552 70.405 70.1993 69.618 69.8506 69.3477C69.6492 69.1915 68.5317 68.5897 69.2027 68.4144C69.1162 68.2945 69.0299 68.1747 68.9436 68.0548ZM73.8842 58.4501C73.464 58.8504 73.0408 59.0745 72.5833 59.3892C72.1821 59.6654 72.3203 59.9825 71.9724 60.2906C71.7415 60.4954 71.2 60.7039 70.9146 60.8601C70.4063 61.1384 69.951 61.1914 69.4281 60.88C69.5703 62.0278 68.7858 62.1177 67.8091 62.345C67.3433 62.4535 67.0676 62.6192 66.7319 62.1918C66.502 61.8993 66.4119 61.3696 66.6979 61.102C67.1522 60.6768 68.3625 60.8236 68.9454 60.5561C69.3877 60.3534 69.8383 59.2106 70.384 59.6265C70.1024 59.1771 70.4303 59.0561 70.6751 58.7356C70.9432 58.3844 71.1079 57.9737 71.3853 57.6254C71.9124 56.9632 72.7217 56.2971 73.4703 55.8978C74.129 55.5466 74.4748 55.7952 74.5735 56.5329C74.6232 56.9038 74.6213 57.4563 74.414 57.7853C74.3479 57.8903 74.1298 57.8915 74.0638 57.99C73.9487 58.1621 74.0543 58.2879 73.8842 58.4501ZM81.614 49.5476C82.1395 49.9552 82.0883 50.8117 82.1711 51.395C82.2879 52.2172 82.2032 53.0127 82.1907 53.8501C82.1776 54.7275 81.7479 55.2989 81.5457 56.1212C81.321 57.036 81.0309 57.5204 80.5268 58.2881C81.0735 58.3742 80.2598 60.0101 80.1257 60.2218C79.9801 60.4517 78.8057 61.511 79.3092 61.511C79.0315 61.878 78.729 62.2546 78.4523 62.6114C78.3433 62.7519 78.1523 62.8071 78.0664 62.9063C77.8916 63.1079 77.8809 63.2877 77.7557 63.5229C77.5657 63.8799 77.5032 63.7846 77.2533 64.0436C77.0808 64.2225 76.9676 64.4587 76.7982 64.6301C76.2521 65.1825 76.1825 64.73 75.8772 64.3046C75.8304 64.4186 75.7473 64.49 75.6279 64.5189C75.5323 64.0375 76.1905 63.5512 76.4672 63.2587C76.9205 62.7793 77.3347 62.2512 77.7355 61.727C78.5937 60.6037 79.3649 59.4103 79.9735 58.132C80.6209 56.7716 81.138 55.2993 81.4067 53.8151C81.6114 52.6839 81.806 50.7433 80.2974 50.4556C79.2001 50.2464 77.9904 50.9143 77.0859 51.4551C76.5346 51.7845 75.9803 52.1121 75.4552 52.4826C74.8852 52.8844 74.3926 53.4532 73.7739 53.7757C74.1123 53.5993 72.9957 54.1301 73.1667 53.9808C73.0866 54.0505 73.1557 54.2637 73.1028 54.3598C73.0339 54.4849 72.7943 54.6085 72.6869 54.6894C72.4031 54.903 71.9496 55.1215 71.8205 55.4743C70.0202 54.1875 73.6004 51.903 74.5181 51.3212C76.3385 50.1673 79.506 47.9126 81.614 49.5476ZM86.4701 37.0329C86.4529 36.1063 87.206 34.8414 87.7147 34.0857C87.9636 33.7159 88.3611 33.7306 88.5069 33.2944C88.5911 33.0432 88.4807 32.7798 88.5057 32.5276C88.5395 32.1865 88.6872 31.913 88.8575 31.6198C90.3971 28.9695 92.2676 26.6238 94.26 24.3115C95.2424 23.1717 96.1738 21.9879 97.2333 20.9171C97.6759 20.4699 98.8655 18.8622 99.546 19.023C99.9063 19.1081 100.116 19.6591 100.279 19.9403C100.548 20.4053 100.843 20.8408 101.17 21.2684C102.033 22.3972 103.028 23.3881 104.204 24.1883C104.938 24.6883 105.679 25.1743 106.397 25.6982C106.988 26.1293 107.881 26.6222 108.303 27.2276C108.725 27.833 108.105 28.3458 107.766 28.8485C107.24 29.6303 106.756 30.4405 106.227 31.2215C106.017 31.0702 106.071 30.7628 105.927 30.569C105.8 30.3971 105.619 30.3272 105.443 30.2211C105.105 30.0182 104.773 29.77 104.468 30.1101C103.933 30.7052 104.668 32.112 105.46 31.9577C105.553 32.545 103.972 33.5124 103.575 33.8357C102.359 34.8273 101.104 35.6894 99.4973 35.7791C98.8471 35.8153 98.1704 35.7659 97.5526 35.5479C97.2566 35.4434 96.9293 35.3001 96.7025 35.0724C96.4308 34.7999 96.3615 34.3943 96.098 34.1245C95.8694 33.8904 95.5555 33.8543 95.3271 33.6194C95.0983 33.3843 94.9853 33.0129 94.8925 32.7084C94.7111 32.1134 94.6768 31.4859 94.5024 30.8896C94.3975 30.5309 94.3114 30.0513 93.9693 30.396C93.4724 30.8967 93.7219 32.4711 93.8491 33.0709C94.0311 33.9268 94.4577 34.6167 94.9045 35.3531C95.3891 36.1518 95.568 36.8927 95.6548 37.817C95.8174 39.5471 96.3129 41.2073 97.0839 42.7639C97.4085 43.4193 97.7972 44.0356 98.1476 44.676C98.3113 44.9748 98.6781 45.9941 99.1233 45.9887C99.8345 45.9799 98.8214 43.9017 98.6808 43.5529C97.9016 41.6206 97.1574 39.5897 96.9905 37.4976C98.1074 37.7858 99.3248 38.0594 100.481 37.8767C99.7349 39.5495 100.515 41.2149 100.419 42.9367C100.372 43.8002 100.337 44.5968 100.355 45.4577C100.371 46.2126 100.03 46.9672 99.7362 47.6499C99.152 49.0056 98.4166 50.678 97.3316 51.7165C96.4245 52.5847 95.2112 52.6525 94.026 52.4526C91.33 51.9976 89.5586 49.9212 88.4272 47.5629C87.7002 46.0479 87.1445 44.4307 86.7996 42.7854C86.4002 40.8813 86.5056 38.9643 86.4701 37.0329ZM89.9713 24.2003C87.4554 22.3764 91.1114 20.3052 92.9723 20.5872C93.4089 20.6532 94.212 20.834 94.1712 21.4048C94.1377 21.8713 93.3611 22.3913 93.0629 22.6792C92.2126 23.5009 91.3472 25.1975 89.9713 24.2003ZM108.274 64.7266C108.188 64.6491 107.483 64.8394 107.762 64.4219C107.994 64.0751 108.637 64.5098 108.87 64.599C108.678 64.7322 108.51 64.9386 108.274 64.7266ZM97.7977 86.7858C97.5815 86.8126 97.3554 86.2283 98.1349 86.6648C98.0226 86.7051 97.9101 86.7456 97.7977 86.7858ZM97.7754 96.3092C97.8023 96.5711 97.8822 96.7437 97.6965 96.9341C97.5396 96.7403 97.5193 96.4669 97.7754 96.3092ZM98.0919 100.244C98.0689 100.387 98.0459 100.529 98.0233 100.671C97.8432 100.58 97.6634 100.489 97.4833 100.398C97.6861 100.346 97.8891 100.295 98.0919 100.244ZM98.3122 96.926C98.5805 97.0266 98.4556 96.7051 98.6504 96.6599C98.7202 96.9946 98.6342 97.2811 98.4424 97.5572C98.4242 97.4919 98.3259 96.9309 98.3122 96.926ZM105.169 73.1815C104.792 73.1335 104.735 73.5319 104.455 73.6865C104.274 73.7863 103.722 73.7114 103.619 73.9025C103.755 73.9417 103.891 73.9812 104.027 74.0204C103.716 74.1884 103.405 74.3564 103.094 74.5244C103.842 74.5244 104.621 74.1664 105.364 74.2715C105.679 74.316 105.909 74.4223 106.106 74.6782C106.225 74.8336 106.33 75.0836 106.35 75.2739C106.371 75.4797 106.21 75.6219 106.239 75.7201C106.574 75.7292 106.534 76.2795 106.459 76.5038C106.296 76.9901 105.648 77.7517 105.068 77.4433C105.311 77.7884 105.249 77.9855 104.89 78.1857C104.922 78.0716 104.946 77.872 104.763 77.8918C104.716 78.0831 104.734 78.3865 104.578 78.5307C104.403 78.692 104.248 78.5034 104.081 78.6084C103.883 78.7329 103.942 78.9285 103.787 79.0635C103.581 79.2419 103.552 79.1152 103.306 79.1499C102.933 79.2027 103.171 78.9708 102.872 79.2731C102.769 79.3774 102.787 79.6487 102.619 79.8014C102.298 80.0944 101.441 80.3998 101.133 80.024C100.393 81.1992 98.1743 81.4812 97.1417 80.5535C95.4948 79.0739 98.5656 76.0647 99.5794 75.1111C100.597 74.154 101.727 73.3273 102.871 72.5293C103.521 72.076 104.187 71.6645 104.868 71.2607C105.288 71.0113 105.816 70.5561 106.332 70.5998C106.795 70.6391 107.19 70.999 107.678 71.0702C108.03 71.1217 108.715 71.2067 108.27 71.6857C108.062 71.9095 107.245 72.2714 106.967 72.3259C106.804 72.3579 106.632 72.2966 106.47 72.3298C106.196 72.3861 106.008 72.6179 105.71 72.5884C105.804 73.0317 105.632 73.2404 105.169 73.1815ZM110.043 56.7233C110.043 57.0702 109.411 56.9837 109.279 56.8659C109.062 56.6721 109.054 56.0925 108.973 55.8289C109.341 55.9215 110.042 56.2604 110.043 56.7233ZM104.953 45.281C106.28 44.188 107.675 43.1859 109.151 42.3033C109.679 41.9873 110.425 41.3498 111.081 41.4294C111.356 41.4629 111.925 41.7796 111.718 42.1288C111.679 42.1941 111.373 42.2204 111.278 42.2678C111.171 42.3214 111.087 42.4694 110.987 42.5425C110.298 43.0491 109.47 43.3604 108.778 43.8792C108.21 44.3053 107.68 44.782 107.068 45.1476C106.481 45.4981 105.868 45.7201 105.311 46.1084C105.322 46.1006 104.586 46.3657 104.73 46.4139C104.085 46.1974 104.767 45.4342 104.953 45.281ZM113.802 44.8739C114.59 44.559 115.361 44.177 116.187 43.9654C116.599 43.8598 117.022 43.7804 117.448 43.8279C117.521 43.7008 117.617 43.6727 117.738 43.7436C117.832 43.8885 117.956 43.9998 118.11 44.0774C118.345 44.2586 119.211 44.4954 119.038 44.8954C118.923 45.1599 118.055 45.1819 117.817 45.2414C117.099 45.4206 116.429 45.8238 115.689 45.9228C115.62 45.9321 115.393 45.8479 115.391 45.8484C115.102 45.9115 114.862 46.2116 114.614 46.3555C114.08 46.6651 113.313 46.7171 112.929 47.2514C114.171 48.0946 115.248 47.2584 116.339 46.6218C116.993 46.2406 117.695 45.9655 118.409 45.7211C118.783 45.5934 119.16 45.4607 119.538 45.3487C119.695 45.2915 119.856 45.2503 120.021 45.2251C120.175 45.1945 120.285 45.2505 120.351 45.3934C120.808 45.3781 120.848 45.0905 121.123 45.627C121.511 46.3833 120.917 46.3448 120.359 46.4378C119.585 46.5664 118.798 46.8562 118.035 47.0483C117.859 47.0927 116.316 47.451 116.314 47.4637C116.245 47.9515 120.672 47.4998 121.052 47.4266C121.723 47.2973 122.442 46.9302 123.136 47.0187C123.67 47.0866 124.884 47.8703 124.034 48.391C123.866 47.588 123.292 48.2512 122.992 48.5222C122.592 48.8829 122.019 48.8482 121.471 48.9895C120.721 49.1825 118.802 49.9066 118.269 48.9834C118.438 49.7925 115.378 49.3814 114.957 49.3546C114.547 49.3284 114.018 49.4157 113.622 49.2986C113.363 49.2223 113.219 49.0538 112.976 49.0159C112.916 49.0802 112.845 49.1241 112.762 49.1473C112.639 49.0848 112.527 49.0053 112.428 48.9089C111.608 48.5316 110.341 48.3231 110.796 47.1211C111.226 45.9875 112.76 45.2899 113.802 44.8739ZM121.482 45.5745C121.502 45.5039 121.523 45.4333 121.543 45.3626C121.545 45.5791 122.061 45.6715 122.001 45.952C121.869 46.573 121.275 45.6398 121.224 45.5381C121.31 45.5503 121.396 45.5623 121.482 45.5745ZM124.628 46.6064C124.687 46.8608 125.373 47.4024 125.203 47.5274C124.933 47.1594 124.186 47.3264 124.628 46.6064ZM113.069 69.8202C113.32 69.3217 114.078 70.1706 113.998 69.3195C114.411 69.3569 114.153 69.6712 114.647 69.5331C114.832 69.4813 114.958 69.2756 115.183 69.2282C115.244 69.2155 115.504 69.2362 115.593 69.2335C115.89 69.2243 117.055 69.1912 116.253 68.8006C116.702 68.5034 116.757 68.6542 117.162 68.9266C117.059 68.3636 117.654 68.6832 117.932 68.7534C117.734 68.4323 118.225 68.0907 118.384 67.8737C118.327 68.208 118.357 68.5823 118.84 68.3685C118.96 68.3153 118.933 68.079 119.029 68.0404C119.203 67.9699 119.301 68.0983 119.364 68.0911C119.425 68.0841 119.555 68.1188 119.685 68.0699C119.853 68.0064 119.772 67.7799 119.986 67.7463C120.125 67.7244 120.226 67.9292 120.396 67.9309C120.483 67.9318 120.629 67.8431 120.695 67.8478C120.707 67.8487 120.789 67.6482 120.891 67.6433C121.04 67.6361 121.101 68.036 121.155 68.1137C121.416 68.4844 121.763 68.7262 122.163 68.9239C121.439 69.5888 119.979 69.5183 119.069 69.7425C118.576 69.864 118.156 70.0392 117.705 70.265C117.596 70.3359 117.502 70.4229 117.424 70.526C117.36 70.4835 117.296 70.441 117.232 70.3986C116.985 70.4138 116.751 70.2912 116.473 70.3383C115.613 70.4835 114.94 71.1286 114.067 71.2723C113.675 71.337 113.352 71.4272 113.096 71.0863C112.872 70.7874 112.909 70.1381 113.069 69.8202ZM111.891 65.8469C112.085 66.0119 111.851 66.5492 112.228 66.4908C112.496 66.4493 112.442 66.0334 112.653 65.9452C112.929 65.8296 113.095 66.104 113.355 66.0786C113.838 66.0309 113.811 65.6077 113.402 65.4218C113.827 65.3094 113.963 65.8128 114.339 65.8083C114.834 65.8023 114.716 65.2182 115.136 65.1214C115.318 65.0794 115.257 65.3473 115.375 65.3807C115.612 65.4472 115.777 65.333 115.986 65.2324C116.173 65.1425 116.306 64.9689 116.511 64.91C116.604 64.883 116.841 64.9323 116.909 64.8824C117.047 64.7818 117.17 64.3901 117.305 64.3383C117.278 64.3488 117.722 64.5719 117.786 64.5929C117.747 64.7583 117.656 64.7779 117.514 64.652C117.514 65.0252 118.55 65.1415 118.337 64.6802C118.897 64.9125 118.48 65.032 118.424 65.3562C118.402 65.4865 118.326 65.4829 118.349 65.6207C118.359 65.6842 118.653 65.6295 118.649 65.716C118.624 66.2731 116.852 66.4444 116.516 66.4935C115.821 66.5952 115.164 66.7663 114.494 66.9771C113.995 67.134 113.135 67.5834 112.604 67.5555C111.84 67.5154 111.741 66.5173 111.891 65.8469ZM110.185 60.1624C109.999 59.5427 110.596 58.2627 111.374 58.4226C111.565 58.4619 111.612 58.6207 111.76 58.6911C111.968 58.7896 112.304 58.7378 112.484 58.8396C112.887 59.0679 112.684 59.6497 113.087 59.8599C112.45 60.0146 110.481 61.1474 110.185 60.1624ZM110.922 62.5701C111.196 62.4223 111.641 62.4034 111.828 62.1192C111.921 62.1838 112.098 62.5764 112.265 62.5163C112.343 62.4884 112.423 62.2756 112.418 62.2758C112.567 62.2715 112.596 62.0696 112.824 62.0923C113.033 62.1133 113.266 62.3648 113.452 62.4586C113.42 61.835 113.58 61.7754 114.085 61.4416C114.195 61.3685 114.288 61.0939 114.39 60.9829C114.292 61.6373 114.538 61.6408 115.06 61.7392C115.714 61.8624 116.121 62.2141 116.383 62.847C115.826 62.7382 115.107 62.8692 114.887 63.4693C114.443 62.6553 112.827 63.7785 112.304 64.0086C111.916 64.1794 111.464 64.4089 111.139 64.011C110.91 63.7306 111.041 63.3935 111.046 63.1445C111.047 63.0663 111.128 63.0617 111.12 62.9452C111.111 62.7966 110.918 62.7372 110.922 62.5701ZM116.87 75.3706C116.723 75.4264 115.966 75.4577 115.961 75.2064C115.957 74.9843 117.298 75.2081 116.87 75.3706ZM115.64 74.5574C115.067 74.9113 114.426 73.6641 114.215 73.3049C114.816 73.382 115.11 72.8782 115.464 72.4953C115.801 73.2349 116.312 72.844 116.851 72.597C117.485 72.3057 118.18 72.3035 118.831 72.0698C119.033 71.9968 119.22 71.8883 119.419 71.8049C119.578 71.7451 119.737 71.6838 119.895 71.621C120.008 71.5195 120.048 71.3944 120.015 71.2461C119.962 71.1215 119.998 71.0428 120.124 71.0103C120.274 71.055 120.426 71.0811 120.582 71.088C120.833 71.0382 121.193 70.8014 120.891 70.5462C121.215 70.2513 121.539 70.5445 121.851 70.6736C121.777 70.4619 121.703 70.2501 121.629 70.0384C121.784 70.1042 122.243 70.7474 122.29 70.7439C122.587 70.7215 122.556 70.3222 122.727 70.1611C122.825 70.2828 122.854 71.1902 123.241 70.8845C123.406 70.7539 123.05 70.3087 122.962 70.2073C123.405 70.3075 123.792 70.8373 123.911 71.2486C123.701 71.2791 123.507 71.2368 123.328 71.1213C123.214 71.6942 124.272 71.4621 124.443 71.7614C124.779 72.3472 122.597 72.7541 122.312 72.8085C121.743 72.9171 121.072 72.9576 120.55 73.2103C120.05 73.4522 119.932 73.5214 119.348 73.5668C118.682 73.6186 118.031 73.8386 117.387 74.01C116.827 74.1586 116.136 74.251 115.64 74.5574ZM127.821 53.5862C128.347 53.3965 130.12 52.4118 130.571 52.8497C130.524 52.8034 130.897 53.5756 130.893 53.527C130.925 53.9287 130.915 54.0903 130.422 54.2828C130.068 54.4206 129.76 54.1277 129.442 54.244C129.093 54.3718 129.337 54.598 129.158 54.7559C128.961 54.9291 128.581 55.0039 128.336 55.0797C127.736 55.2654 127.131 55.4206 126.534 55.6207C125.318 56.0278 124.032 56.4066 122.783 56.6946C121.849 56.9097 120.265 57.4444 119.406 56.8129C119.322 57.1719 119.116 57.1228 118.832 57.1751C118.608 57.2161 118.204 57.327 118.005 57.3327C117.675 57.3424 116.755 57.2555 116.882 56.7909C116.847 56.9188 117.597 56.4808 117.467 56.4535C117.786 56.5207 117.682 56.3601 117.943 56.2707C118.284 56.1541 118.64 56.1603 118.988 56.0368C119.865 55.7253 120.601 55.3211 121.526 55.1259C123.641 54.6802 125.781 54.3217 127.821 53.5862ZM43.0618 101.59C42.8905 101.595 42.7572 101.107 43.2784 101.455C43.2063 101.5 43.1341 101.545 43.0618 101.59ZM38.9446 100.959C38.7116 101.019 38.6187 100.888 38.6662 100.568C38.9911 100.44 39.0838 100.57 38.9446 100.959ZM35.7661 100.306C35.7064 100.02 35.9176 99.9561 36.109 99.828C36.0898 100.206 36.0898 100.206 35.7661 100.306ZM27.7685 97.9574C27.4464 97.8865 27.0171 97.5708 26.9432 98.1007C26.8893 97.978 26.6143 97.4008 26.7324 97.2673C26.7941 97.1973 27.0275 97.5207 27.0027 97.4887C27.2847 96.9172 27.7707 97.6068 28.0424 97.8108C27.9512 97.8597 27.8598 97.9086 27.7685 97.9574ZM111.534 34.8031C111.646 34.5675 111.777 34.4927 111.927 34.5788C111.691 35.13 110.888 35.4287 111.534 34.8031ZM117.108 29.6295C117.307 30.0027 117.008 30.1605 116.794 30.4708C116.919 30.1361 117.006 29.9042 117.108 29.6295ZM141.331 66.064C142.048 66.0639 143.574 65.6849 144.006 66.5057C144.292 65.9479 144.618 66.9938 144.866 67.1616C144.894 67.1805 145.072 67.0436 145.155 67.0941C145.281 67.1701 145.389 67.3771 145.461 67.5001C145.677 67.8712 145.77 68.3123 145.89 68.7206C144.638 68.7206 143.355 68.4286 142.104 68.3224C141.283 68.2527 140.479 68.2507 139.656 68.295C139.493 68.3038 139.169 68.2498 139.029 68.2806C138.887 68.312 138.63 68.6016 138.473 68.555C138.716 69.0122 141.83 70.1191 142.067 69.6128C141.786 69.4422 141.161 69.3112 141.161 68.8988C141.162 68.4369 141.748 68.4377 142.058 68.4513C142.738 68.4811 143.875 68.7075 144.153 69.4151C144.273 69.7184 144.309 70.4822 144.178 70.775C144.093 70.9641 143.95 71.1914 143.723 71.2298C143.63 71.2456 143.496 71.1215 143.482 71.1246C143.016 71.2236 142.153 71.5985 141.645 71.0699C141.279 71.545 139.514 71.026 138.973 70.8468C138.028 70.5333 136.727 70.1028 136.153 69.2192C135.453 68.1423 136.875 67.2322 137.692 66.7944C138.809 66.1962 140.085 66.0645 141.331 66.064ZM146.101 68.554C146.32 68.6161 146.54 68.6784 146.76 68.7406C146.701 69.1265 145.834 68.8211 146.101 68.554ZM152.742 82.5827C152.809 81.0364 152.363 79.6746 152.105 78.1791C152.042 77.8084 152.107 77.1602 151.826 76.8554C151.557 76.5639 150.958 76.8009 150.934 76.2856C150.67 76.5959 150.696 76.6607 150.37 76.3039C150.43 76.4569 150.439 76.6125 150.396 76.7709C150.194 76.6548 149.461 76.2692 149.523 76.7965C148.92 76.6629 149.095 76.2853 148.751 75.997C148.702 75.9561 148.506 76.1015 148.429 76.0395C148.291 75.9273 148.223 75.8254 148.106 75.6808C147.958 75.8603 147.756 75.9899 147.575 76.1318C147.47 75.9021 147.265 75.7335 147.019 75.6776C147.249 76.1604 147.818 76.7857 147.038 77.0604C146.571 77.2242 145.808 77.0233 145.314 77.0616C143.485 77.2038 141.481 76.8041 139.712 76.3674C137.894 75.9188 136.056 75.2856 134.422 74.36C134.074 74.1626 133.854 73.929 133.554 73.6843C133.263 73.4463 133.051 73.4087 132.7 73.2565C132.069 72.9827 131.492 72.5434 131.012 72.0539C129.98 71.0012 129.021 69.6245 129.308 68.0833C129.595 66.5471 130.649 65.3467 131.776 64.3351C133.108 63.1404 134.612 62.1429 136.208 61.3387C136.921 60.9793 138.747 59.6289 139.452 60.419C139.902 60.9238 139.649 61.5679 139.033 61.6801C138.881 61.7079 138.723 61.6058 138.569 61.6757C138.348 61.7766 138.426 61.8957 138.334 61.9799C138.176 62.1259 138.007 62.3538 137.77 62.4804C136.943 62.9224 136.143 63.2726 135.352 63.8109C134.987 64.0589 134.637 64.1655 134.315 64.382C133.996 64.5971 133.923 64.9533 133.493 64.7336C133.646 65.3599 132.727 66.0305 132.367 66.4143C131.809 67.0084 131.14 67.7667 131.4 68.6458C131.91 70.3666 134.213 71.6735 135.687 72.43C137.526 73.3738 139.554 74.1252 141.602 74.4362C142.62 74.5907 143.672 74.6862 144.698 74.7842C145.496 74.8605 146.722 74.5811 147.296 75.3017C147.314 74.4614 149.933 74.5355 150.491 74.4281C149.373 70.6 147.178 67.1965 144.832 64.0165C143.681 62.4555 142.55 60.8502 141.237 59.4191C139.8 57.8525 138.158 56.4525 136.598 55.011C133.539 52.1837 130.078 49.6603 126.557 47.4375C123.044 45.2199 119.406 43.0373 115.557 41.4561C111.161 39.6503 106.534 38.4626 101.901 37.451C102.529 36.6487 103.551 36.2573 104.356 35.6703C104.638 35.4648 105.019 34.9715 105.385 34.9042C105.781 34.831 106.093 35.2583 106.375 35.4727C107.185 36.0882 107.745 35.8268 108.672 35.7898C109.227 35.7676 110.542 36.0772 110.776 35.3251C111.087 35.7402 110.636 36.073 110.405 36.3773C110.573 36.6123 110.708 36.3685 110.874 36.3318C110.925 36.2893 110.976 36.2466 111.028 36.2042C111.11 36.0846 111.184 36.084 111.251 36.2018C111.35 36.3511 111.449 36.3181 111.55 36.1026C111.577 36.0853 111.604 36.0679 111.632 36.0506C111.752 35.9866 111.868 35.8854 111.979 35.8057C112.822 35.2022 113.573 34.6882 114.504 34.2437C115.285 33.8706 114.865 33.1568 115.38 32.6527C115.496 32.5386 115.693 32.5958 115.817 32.4992C115.939 32.4042 115.958 32.2965 116.047 32.1948C116.261 31.9502 116.006 31.6663 116.552 31.9658L116.355 30.8552C117.426 31.8959 117.421 28.9011 117.568 28.458C117.548 28.5165 117.664 28.0631 117.664 28.067C117.695 27.1683 117.818 26.5169 116.767 26.4648C117.165 26.2141 117.286 26.7037 117.47 26.1969C117.562 25.943 117.275 25.5066 117.732 25.6703C117.829 25.1306 117.734 24.6939 117.614 24.1695C117.491 23.6327 117.563 23.2746 117.569 22.7378C117.575 22.1289 117.29 21.517 117.199 20.9175C117.128 20.4479 117.201 19.7074 116.596 19.8798C116.51 19.7463 116.81 19.3355 116.797 19.1323C116.779 18.8168 116.437 18.4962 116.34 18.1932C116.198 18.3405 115.997 18.3896 115.803 18.3231C115.985 17.9114 115.814 17.7731 115.64 17.4181C115.54 17.2148 115.601 16.9904 115.387 16.8447C115.264 16.7611 115.055 16.9019 114.96 16.8039C114.754 16.594 114.83 16.3156 114.688 16.039C114.511 15.6921 114.105 15.4272 113.826 15.1669C112.254 13.7036 110.548 12.5852 108.457 12.0134C106.349 11.4365 103.89 11.2298 101.789 11.8952C100.949 12.1612 100.203 12.1339 99.4471 12.6305C99.202 12.7917 99.1757 12.7485 99.0511 13.0172C99.0224 13.0798 99.2834 13.2465 99.1236 13.3489C98.9499 13.4601 98.7582 13.234 98.6697 13.0463C97.5759 13.8395 96.5511 14.8969 95.9282 16.1094C95.3092 17.3142 95.2524 18.7296 95.016 20.039C93.9258 18.7911 92.4513 18.1929 90.8482 18.7928C89.4508 19.3155 88.368 20.4645 88.0947 21.9531C87.9279 22.8605 88.1101 23.7795 88.5215 24.5983C88.6994 24.952 88.9148 25.3437 89.2418 25.5819C89.5005 25.7701 89.9435 25.7437 90.0653 26.0833C90.252 26.6034 89.1737 27.7269 88.8938 28.1822C88.3875 29.0062 87.917 29.8572 87.5588 30.7572C86.2747 28.9397 85.0454 26.9547 83.5852 25.2789C82.2071 23.6972 80.5643 22.2787 78.9531 20.9418C75.609 18.1672 72.1317 15.5605 68.3909 13.3499C64.9078 11.2916 60.7004 10.1489 56.641 10.5529C52.6746 10.9478 49.638 13.4612 47.0827 16.3599C42.1694 21.9334 39.1602 29.8775 38.8662 37.2968C38.7779 39.5256 38.9473 41.7253 39.4967 43.887C39.7584 44.9164 39.7204 45.9288 39.8725 46.9713C40.0441 48.1474 40.3409 49.3193 40.628 50.4713C41.7214 54.86 43.1145 59.2453 44.6778 63.4886C45.4906 65.6952 46.474 67.8524 47.8044 69.7982C48.4189 70.697 49.215 71.4001 49.8762 72.2536C50.5177 73.0813 50.6871 74.0973 50.8282 75.1129C51.1664 77.5482 51.3908 79.9938 51.5942 82.4434C51.6805 83.4815 51.7814 84.5105 51.9186 85.5414C52.0382 86.4402 51.7373 86.396 50.9826 86.7012C51.1357 85.8936 47.5301 86.4431 47.1896 86.4983C46.8191 86.5582 46.4269 86.559 46.1351 86.6068C45.8089 86.6599 45.4895 86.7369 45.1138 86.7261C44.5615 86.7102 43.5274 86.5688 43.3166 87.2752C43.1714 86.4563 42.2129 87.3517 42.9221 87.1997C42.1941 87.2813 41.4512 87.1455 40.7145 87.2143C39.8701 87.2928 39.0184 87.3676 38.18 87.4949C37.5963 87.5834 37.0392 87.8087 36.4545 87.8741C35.7063 87.9579 34.9254 87.9501 34.1699 88.0168C31.3831 88.2631 28.4947 88.8721 25.7858 89.5695C25.1722 89.7274 24.4672 89.8397 23.8809 90.0932C23.724 90.1609 23.5827 90.3126 23.4324 90.3708C23.1803 90.4683 23.2148 90.401 22.9909 90.4456C21.6497 90.7143 20.266 91.153 18.9249 91.4973C18.1811 91.6884 16.9711 91.8607 16.3643 92.3809C16.0923 92.6138 15.8546 93.027 16.2905 93.2918C16.6387 93.5032 17.1356 93.1657 17.4174 92.9832C17.1664 93.6388 16.6929 93.9655 16.9486 94.7113C17.1505 95.3007 17.6063 96.027 18.3076 95.6468C18.4015 95.8657 18.4395 96.3011 18.7161 96.3815C18.9646 96.4538 19.1445 96.1382 19.388 96.2125C19.4752 96.2391 19.4421 96.4042 19.5201 96.4473C19.6546 96.5215 19.7909 96.5529 19.945 96.6052C20.0775 96.6503 20.2907 96.7427 20.4289 96.7525C20.5166 96.7588 20.7232 96.6085 20.7225 96.6085C20.9239 96.6391 21.0322 97.0252 21.1771 97.1368C21.3653 97.2816 21.5208 97.3147 21.7564 97.3671C22.2464 97.4761 22.8779 97.663 23.2013 97.1604C23.1273 97.5193 23.6143 97.4841 23.8292 97.5296C23.8054 97.3405 23.7012 97.1674 23.5403 97.0636C24.0208 97.0955 23.826 97.574 24.1811 97.7004C24.4342 97.7903 24.4055 97.5618 24.5991 97.5364C24.8542 97.5031 25.0478 97.6886 25.4462 97.5174C25.5325 97.9019 25.5641 98.2895 26.0353 98.3469C26.3119 98.3805 26.9568 97.8802 26.9203 98.2966C27.5381 98.1151 27.7726 98.2378 28.0954 98.7834C28.15 98.4484 28.4141 98.5456 28.6563 98.5249C29.0404 98.4921 29.0502 98.5231 29.3478 98.3052C29.375 98.2854 29.6092 97.748 29.7133 98.082C29.7601 98.2316 29.4507 98.5837 29.3362 98.6732C29.4784 98.7453 29.9445 98.9977 30.1238 98.9513C30.2789 98.9112 30.2794 98.6456 30.4657 98.6319C30.4201 98.7846 30.3747 98.9374 30.3289 99.0901C30.6915 99.1429 30.9944 98.8999 31.2807 98.7218C31.5538 99.4134 32.3341 99.0238 32.7585 99.5443C32.983 99.8197 32.9935 100.029 33.4213 100.101C33.859 100.174 34.2413 99.982 34.6134 100.344C34.4954 100.119 34.2016 99.9331 34.4936 99.6919C34.6923 99.9744 34.7948 100.315 35.0239 100.577C35.0555 100.444 35.0871 100.31 35.1187 100.177C35.7159 100.817 36.4677 100.822 37.2327 101.177V100.709C37.7804 101.546 37.8096 101.016 38.464 100.674C38.4195 100.92 38.3749 101.167 38.3305 101.413C38.8013 101.377 39.2413 101.936 39.6278 101.461C39.8613 101.854 40.1443 101.661 40.5269 101.785C40.7445 101.856 40.9066 102.071 41.1183 102.148C41.4357 102.265 41.5305 102.259 41.8293 102.361C42.0951 102.451 42.2461 102.626 42.5788 102.682C42.7949 102.719 42.9908 102.716 43.1976 102.706C43.2775 102.702 43.2512 102.522 43.4288 102.564C43.7033 102.629 43.9077 102.974 44.1054 103.151C44.4027 102.402 45.2353 103.406 45.6377 103.539C45.6762 103.347 45.6693 103.116 45.808 102.958C45.9709 103.315 46.033 103.616 46.3711 103.846C46.5662 103.979 46.8528 104.074 47.0781 104.123C47.2206 104.153 47.4794 104.117 47.5689 104.161C47.7217 104.236 47.7779 104.436 47.9322 104.455C48.0229 104.466 48.1574 104.226 48.2253 104.245C48.5361 104.33 48.7088 104.708 49.0227 104.913C49.9568 105.522 51.1323 105.581 52.173 105.715C52.4342 105.748 52.4721 105.676 52.6843 105.83C52.7974 105.912 52.7461 106.162 52.8853 106.232C53.4099 106.495 53.4102 105.933 53.5202 105.584C53.6937 105.813 53.7236 106.116 53.961 106.298C54.0906 106.295 54.2203 106.298 54.3497 106.307C54.4227 106.391 54.4707 106.487 54.493 106.596C54.8072 106.809 55.1632 106.735 55.4877 106.894C55.5942 106.947 55.7827 107.263 55.9138 107.354C56.1485 107.517 56.5114 107.604 56.7795 107.675C57.3417 107.823 58.1479 107.626 58.4825 108.214C58.9266 107.737 58.7548 108.307 59.0564 108.426C59.2344 108.497 59.5022 108.216 59.6997 108.244C60.0553 108.294 60.1834 108.68 60.2973 108.96C60.5139 108.912 60.3652 108.298 60.3591 108.163C60.6282 108.132 60.688 108.842 60.7345 108.998C61.1594 108.793 60.462 108.155 60.9188 107.95C60.8769 108.494 61.3093 108.941 60.5372 109.019C60.6438 109.346 63.134 109.71 63.307 109.421C63.3454 109.955 63.7035 109.456 63.8357 109.273C63.8505 109.585 63.7446 110.027 64.0936 110.172C64.3308 110.271 64.8657 110.016 64.9588 109.783C65.0651 110.139 65.2431 110.128 65.4645 110.354C65.6165 110.509 65.7167 110.778 65.8762 110.908C66.1696 111.147 66.7155 111.111 67.0574 111.057C67.7265 110.952 67.6474 110.824 67.8858 111.521C67.9397 111.256 68.1086 110.703 68.4033 111.114C68.5908 111.376 68.1916 111.951 68.0762 112.181C68.334 112.039 68.59 111.871 68.8832 111.809C68.8996 111.9 68.9147 112.092 68.8714 112.176C68.8802 112.159 69.1931 112.369 69.3092 112.427C69.2813 112.413 69.4009 111.89 69.3975 111.907C69.8102 112.162 69.5239 112.65 69.8895 112.902C69.9839 112.967 70.2056 112.891 70.3198 112.931C70.5186 113 70.6906 113.187 70.8673 113.296C70.7263 113.106 70.7465 112.788 70.7562 112.569C70.8461 112.619 70.9103 112.805 71.001 112.82C71.0353 112.825 71.3909 112.873 71.3885 112.871C71.7587 113.131 71.6825 113.163 71.3647 113.476C71.4782 113.654 71.9528 113.344 72.0812 113.292C72.1081 113.362 72.115 113.616 72.1655 113.661C72.1961 113.736 72.2268 113.812 72.2576 113.887C72.3524 113.816 72.4541 113.792 72.5625 113.816C72.6311 113.84 73.1665 114.058 73.2028 113.983C73.0858 113.945 72.9795 113.887 72.8845 113.809C73.1935 113.53 73.3968 113.383 73.6815 113.784C73.7173 113.835 73.5941 114.017 73.6306 114.083C73.7666 114.329 74.046 114.524 74.2358 114.724C74.3143 114.448 74.1315 113.756 74.5677 113.781C74.9163 113.801 75.1814 114.647 75.0607 114.91C75.1993 114.758 76.0264 114.607 76.1825 114.655C76.624 114.789 76.5001 115.198 77.0433 114.599C77.4136 114.855 77.0872 114.952 77.154 115.264C77.2518 115.284 77.3444 115.26 77.432 115.191C77.3665 116.518 78.3435 115.504 78.9779 115.707C79.2269 115.786 79.2906 116.07 79.5579 116.152C79.6993 116.196 79.8566 116.093 79.9941 116.118C80.1043 116.102 80.2137 116.083 80.3225 116.059C80.4604 115.99 80.5251 116.067 80.5167 116.292C80.7383 116.407 80.6545 116.452 80.9137 116.474C81.0806 116.489 81.2342 116.315 81.4239 116.344C81.7511 116.396 81.7079 116.647 81.917 116.779C82.1052 116.897 82.3174 116.894 82.5492 116.871C82.6673 116.859 82.999 116.706 83.0388 116.706C83.2865 116.703 83.1522 116.65 83.4495 116.863C83.681 117.029 83.7781 117.137 84.0623 117.213C84.3882 117.301 84.9663 117.492 85.1856 117.256C85.4818 117.701 85.7137 117.375 86.1047 117.404C86.3047 117.419 86.3365 117.497 86.5145 117.528C86.8031 117.579 87.1631 117.535 87.4701 117.634C87.9538 117.79 88.0084 117.868 88.5027 117.889C88.5919 117.854 88.6811 117.819 88.7701 117.784C88.7968 117.933 88.8669 118.055 88.9806 118.149C89.2572 118.207 89.4388 118.067 89.6669 117.914C89.8369 118.445 90.3883 118.491 90.86 118.561C91.6211 118.673 92.3489 118.735 93.0828 118.985C93.7027 119.197 94.3237 119.435 94.9199 119.706C95.4447 119.944 95.9398 120.301 96.5335 120.133C97.8787 119.754 99.1822 118.37 100.308 117.576C101.641 116.635 103.078 115.86 104.471 115.014C110.016 111.647 115.874 108.798 121.341 105.305C124.325 103.398 127.095 101.133 130.3 99.59C129.844 101.479 129.067 103.397 129.208 105.375C129.264 106.172 129.498 107.114 130.115 107.67C130.878 108.358 131.728 107.92 132.457 107.429C134.02 106.376 135.063 104.839 136.233 103.396C137.617 101.689 138.69 99.8552 139.706 97.9098C139.95 98.2522 139.764 98.8259 139.768 99.2056C139.773 99.69 139.903 100.157 140.127 100.589C140.706 101.706 141.808 101.976 142.803 101.211C144.718 99.7396 145.83 97.1185 146.856 95.0077C147.442 96.0988 148.273 97.4722 149.678 96.6929C150.838 96.0499 151.52 94.6129 151.875 93.3959C152.911 89.8432 152.582 86.2244 152.742 82.5827Z" fill="white"/>
<path fill-rule="evenodd" clip-rule="evenodd" d="M150.982 61.2432C150.85 60.9212 150.792 60.9739 151.035 60.6617C151.225 60.8488 151.073 61.0033 150.982 61.2432ZM156.845 80.7285C156.473 79.6688 156.702 78.5181 156.477 77.4312C156.373 76.9326 156.209 76.4488 156.15 75.9411C156.124 75.7158 155.924 74.7017 156.06 74.5421C155.64 74.2875 155.639 74.0991 155.542 73.6C155.692 73.441 155.673 73.3054 155.486 73.1929C155.363 73.0446 155.241 72.8961 155.118 72.7478C155.654 73.01 155.337 72.3389 155.282 71.9521C155.239 71.6464 155.21 71.3275 155.108 71.0345C154.983 70.6743 154.705 70.4921 155.284 70.4921C155.093 70.275 154.808 70.0509 154.713 69.7849C154.577 69.4022 154.802 68.8964 154.524 68.5584C154.368 68.3698 153.568 68.296 153.709 67.8888C153.78 67.6812 154.104 67.8361 154.205 67.6907C154.599 67.1193 153.435 66.8824 153.377 66.6394C153.303 66.3242 153.724 66.2538 153.75 65.9591C153.775 65.6706 153.328 65.1967 153.209 64.9387C153.048 64.978 152.871 65.2334 152.687 65.1114C152.652 65.0883 152.705 64.0898 152.663 63.9573C152.621 63.8269 152.537 63.4813 152.507 63.4173C152.388 63.1632 152.046 63.0395 151.992 62.7394C151.959 62.5603 152.66 62.2891 151.856 62.2806C152.145 61.7711 151.616 61.4615 151.424 61.0262C151.176 60.4664 151.031 59.8618 150.777 59.2991C150.53 58.7522 150.253 58.2332 149.897 57.7496C149.575 57.3117 149.435 56.8906 149.178 56.4281C149.126 56.3875 149.075 56.3469 149.023 56.3062C148.808 56.3374 148.739 56.2394 148.816 56.012C148.652 55.7681 148.53 55.5078 148.385 55.253C148.216 54.957 147.989 54.7156 147.815 54.4277C147.584 54.046 147.516 53.6155 147.255 53.2326C146.934 52.7615 146.573 52.3461 146.276 51.8575C145.903 51.2452 145.49 50.8647 145.021 50.3906C144.798 50.1648 144.771 49.6007 144.498 49.2801C144.2 48.9309 143.906 48.8363 143.699 48.3779C143.431 47.7816 143.037 47.4969 142.653 46.9814C142.336 46.5562 142.182 46.0676 141.833 45.6562C141.533 45.303 141.193 44.9802 140.873 44.6452C140.468 44.2222 140.17 43.7081 139.749 43.3059C139.81 43.364 139.383 43.0251 139.405 43.0359C139.31 42.9877 139.006 42.9489 139.05 42.9751C138.415 42.6012 137.62 41.2327 136.664 41.9578C136.162 42.3392 136.403 43.0386 136.754 43.4185C136.904 43.5816 137.687 44.386 137.856 44.0468C138.039 44.3061 138.601 45.5597 139.069 45.2005C139.022 45.629 139.269 45.4868 139.433 45.7764C139.54 45.9675 139.488 46.0613 139.566 46.3595C139.782 47.1795 140.605 47.9803 141.044 48.6953C142.135 50.4749 143.339 52.1627 144.431 53.9442C145.472 55.6422 146.638 57.2533 147.636 58.9741C148.772 60.9309 150.187 62.778 151.043 64.8874C151.072 64.9583 151.309 65.0706 151.368 65.177C151.471 65.3621 151.449 65.682 151.515 65.8915C151.745 66.618 152.117 67.3332 152.541 67.935C152.913 68.4629 152.94 69.1805 153.196 69.7998C153.557 70.6728 153.938 71.5365 154.289 72.4139C154.835 73.7794 155.205 75.0882 155.582 76.5138C155.827 77.4377 156.021 78.361 156.099 79.315C156.171 80.1924 156.188 81.1063 156.512 81.9369C156.733 81.595 156.994 81.152 156.845 80.7285Z" fill="white"/>
<path fill-rule="evenodd" clip-rule="evenodd" d="M31.971 99.5279C31.5787 99.4485 31.2096 99.3425 31.1264 98.8912C31.0695 99.104 31.0127 99.3168 30.9558 99.5296C31.4334 99.6379 31.9112 99.7464 32.3888 99.8547C32.2773 99.6579 32.1959 99.5734 31.971 99.5279Z" fill="white"/>
<path fill-rule="evenodd" clip-rule="evenodd" d="M33.0238 25.4649C33.0535 25.3376 33.092 25.2129 33.1395 25.0912C33.1718 25.2098 33.3299 25.4665 33.2378 25.5783C33.1206 25.7204 33.002 25.64 33.0238 25.4649ZM34.9469 21.7989C35.0756 21.8557 35.3542 21.8667 35.514 21.9148C35.0995 22.2721 35.0265 22.167 34.4904 22.1256C34.4666 21.764 34.6132 21.6518 34.9469 21.7989ZM31.3533 30.7496C31.4088 30.7511 31.4646 30.7524 31.5205 30.7538C31.5239 30.5964 31.5198 30.4391 31.508 30.282C32.0733 30.4058 31.7533 29.416 31.5758 29.2109C32.1272 29.2293 32.3958 27.4801 32.5705 27.1431C32.7256 26.8438 32.9013 26.728 33.0147 26.3631C33.1138 26.0437 33.2211 25.7562 33.3642 25.4541C33.693 24.7594 34.1243 24.1285 34.0447 23.3189C34.3233 23.9264 34.5683 23.3199 34.745 23.0295C35.0297 22.5614 35.7242 21.9642 35.798 21.4084C35.8633 20.919 35.5004 20.8931 35.7146 20.4393C35.9312 19.9799 36.1092 20.0259 36.4887 19.879C36.7411 19.7812 36.7913 19.9 36.9693 19.5807C37.0847 19.3741 37.044 19.22 37.1918 19.0506C37.2528 19.1037 37.3223 19.1257 37.4 19.1166C37.5199 18.958 37.5987 18.7813 37.636 18.5864C37.7338 18.3234 37.7811 18.0818 37.9284 17.8313C38.0682 17.594 38.3162 16.9591 38.4476 16.8446C38.5872 16.7231 39.3787 16.7849 39.3753 16.7893C39.7022 16.3773 39.1023 15.9668 39.933 16.0536C39.7689 15.7476 40.3452 15.3677 40.5125 15.1975C40.9303 14.7724 40.9635 14.5757 41.0517 14.0412C41.0965 13.7686 40.8042 13.8001 41.196 13.738C41.358 13.7124 41.5135 13.92 41.6304 13.8895C42.1465 13.7554 41.6065 13.781 41.749 13.5702C41.7939 13.5034 42.0235 13.2336 42.0213 13.2364C42.0102 13.25 42.073 13.0017 42.125 12.9379C42.2237 12.9294 42.3208 12.9121 42.4163 12.8861C42.4648 12.7879 42.5077 12.6873 42.5449 12.5844C42.9184 12.2723 43.4773 12.1326 43.7356 11.7897C43.9027 11.5679 43.8527 11.3508 44.0686 11.1297C44.2742 10.9191 44.5462 11.0716 44.5869 10.596C44.6388 9.99085 43.99 9.72154 43.7246 10.3323C43.0049 9.4441 39.9967 12.7027 39.6491 13.1285C38.1396 14.9766 36.6559 16.8704 35.4177 18.914C34.2113 20.9053 33.2211 23.0005 32.4472 25.1968C32.074 26.2558 31.8467 27.31 31.6188 28.4053C31.5423 28.7721 30.9704 30.4068 31.2085 30.7726C31.2566 30.765 31.3049 30.7572 31.3533 30.7496Z" fill="white"/>
<path fill-rule="evenodd" clip-rule="evenodd" d="M150.173 76.0701C150.428 75.9001 150.428 75.9001 150.472 75.579C150.131 75.6413 150.131 75.6413 150.173 76.0701Z" fill="white"/>
<path fill-rule="evenodd" clip-rule="evenodd" d="M24.8432 97.6734C24.8464 97.673 24.8488 97.6739 24.8507 97.6757C24.8453 97.6688 24.8257 97.6483 24.8432 97.6734Z" fill="white"/>
<path fill-rule="evenodd" clip-rule="evenodd" d="M24.6728 97.8455C24.7513 98.0156 24.8775 98.0579 25.0516 97.9721C25.1202 98.0703 24.4565 97.3595 24.6728 97.8455Z" fill="white"/>
<path fill-rule="evenodd" clip-rule="evenodd" d="M36.1486 20.2018C35.7504 20.984 36.2491 20.4151 36.2236 20.6691C36.2403 20.5022 36.3094 20.2644 36.1486 20.2018Z" fill="white"/>
<path fill-rule="evenodd" clip-rule="evenodd" d="M100.887 32.3084C101.059 33.711 102.974 33.0476 103.405 32.1992C103.719 31.5816 104.511 29.1408 103.659 28.6252C103.027 28.243 102.892 29.8904 102.736 30.2584C102.475 30.8747 102.271 30.438 101.691 30.5961C101.051 30.7706 100.816 31.7268 100.887 32.3084Z" fill="white"/>
<path fill-rule="evenodd" clip-rule="evenodd" d="M98.7943 29.741C99.4789 29.8934 100.15 29.8148 100.636 29.2732C100.905 28.9732 101.264 28.3782 100.779 28.0879C100.339 27.8251 99.8412 28.4407 99.3785 28.3134C98.7492 28.1402 99.0732 27.4642 98.8573 27.0176C98.0639 27.4753 97.6213 29.48 98.7943 29.741Z" fill="white"/>
<path fill-rule="evenodd" clip-rule="evenodd" d="M99.5042 33.2827C98.8443 33.2813 98.8389 34.0945 99.1834 34.443C99.513 34.7765 100.347 35.114 100.793 34.8547C101.675 34.3428 100.038 33.3355 99.5042 33.2827Z" fill="white"/>
<path fill-rule="evenodd" clip-rule="evenodd" d="M61.1082 65.6197C61.2491 65.6883 61.6644 66.041 61.8394 65.8817C61.5924 65.6324 61.3453 65.3831 61.0983 65.1337C60.9617 65.2837 60.8682 65.5029 61.1082 65.6197Z" fill="white"/>
<path fill-rule="evenodd" clip-rule="evenodd" d="M57.9897 29.944C57.9196 29.9964 57.8493 30.0487 57.7792 30.1011C58.0159 30.2986 58.01 30.3573 58.2485 30.1703C58.1777 30.0768 58.0916 30.0015 57.9897 29.944Z" fill="white"/>
<path fill-rule="evenodd" clip-rule="evenodd" d="M102.715 76.4791C102.582 76.2404 102.331 76.6805 102.162 76.7521C101.886 76.8684 101.66 76.2523 101.739 76.9908C101.116 76.7049 100.738 77.3608 100.336 77.7024C99.7678 78.1852 99.0732 78.447 98.6945 79.1326C100.477 79.5505 102.436 78.0105 103.766 76.9989C103.983 76.8337 105.067 76.0004 104.332 75.9198C104.031 75.887 102.938 76.8802 102.715 76.4791Z" fill="white"/>
<path fill-rule="evenodd" clip-rule="evenodd" d="M102.186 75.033C102.535 74.7574 101.782 74.7322 101.663 74.7032C101.673 74.9225 101.683 75.1415 101.693 75.3607C101.862 75.2583 102.026 75.1489 102.186 75.033Z" fill="white"/>
<path fill-rule="evenodd" clip-rule="evenodd" d="M100.874 75.9524C100.978 75.887 101.269 75.683 101.071 75.531C100.892 75.6451 100.764 75.8313 100.736 76.0438C100.782 76.0133 100.828 75.9828 100.874 75.9524Z" fill="white"/>
<path fill-rule="evenodd" clip-rule="evenodd" d="M71.999 58.1776C71.7758 58.2652 71.6758 58.4039 71.6993 58.5938C72.0422 58.5235 71.9768 58.199 71.999 58.1776Z" fill="white"/>
</svg>
